HIERARCHY
ROOT Hips
{
	OFFSET 0.000000 0.000000 0.000000
	CHANNELS 6 Xposition Yposition Zposition Zrotation Yrotation Xrotation 
	JOINT LHipJoint
	{
		OFFSET 0.000000 0.000000 0.000000
		CHANNELS 3 Zrotation Yrotation Xrotation
		JOINT LeftUpLeg
		{
			OFFSET 1.363060 -1.794630 0.839290
			CHANNELS 3 Zrotation Yrotation Xrotation
			JOINT LeftLeg
			{
				OFFSET 2.448110 -6.726130 0.000000
				CHANNELS 3 Zrotation Yrotation Xrotation
				JOINT LeftFoot
				{
					OFFSET 2.562200 -7.039590 0.000000
					CHANNELS 3 Zrotation Yrotation Xrotation
					JOINT LeftToeBase
					{
						OFFSET 0.157640 -0.433110 2.322550
						CHANNELS 3 Zrotation Yrotation Xrotation
						End Site
						{
							OFFSET 0.000000 0.000000 0.000000
						}
					}
				}
			}
		}
	}
	JOINT RHipJoint
	{
		OFFSET 0.000000 0.000000 0.000000
		CHANNELS 3 Zrotation Yrotation Xrotation
		JOINT RightUpLeg
		{
			OFFSET -1.305520 -1.794630 0.839290
			CHANNELS 3 Zrotation Yrotation Xrotation
			JOINT RightLeg
			{
				OFFSET -2.542530 -6.985550 0.000000
				CHANNELS 3 Zrotation Yrotation Xrotation
				JOINT RightFoot
				{
					OFFSET -2.568260 -7.056230 0.000000
					CHANNELS 3 Zrotation Yrotation Xrotation
					JOINT RightToeBase
					{
						OFFSET -0.164730 -0.452590 2.363150
						CHANNELS 3 Zrotation Yrotation Xrotation
						End Site
						{
							OFFSET 0.000000 0.000000 0.000000
						}
					}
				}
			}
		}
	}
}
MOTION
Frames: 33
Frame Time: 0.008333
3.437825 16.437588 6.876701 4.473850 28.120411 21.418800 -12.743795 2.418335 -2.711397 2.429900 10.610518 -14.173423 0.019934 2.846642 47.458322 1.764678 6.739744 18.744633 2.087201 0.000000 -56.203200 7.399743 -0.028345 -1.747254 20.055026 -1.908003 -45.810714 2.317032 -2.606076 40.771815 -3.577874 -9.876450 -22.301958 -177.603100 -0.000000 -10.597500
3.456630 16.449468 7.004018 4.618847 28.160380 21.439438 -12.689268 2.316036 -2.636830 2.265987 9.700312 -15.111266 0.104562 2.937880 49.009747 1.872331 8.082448 17.990720 2.573800 -0.000001 -53.598100 7.429695 0.007891 -1.882149 20.009874 -2.118711 -45.123699 2.291887 -2.567771 40.740706 -3.658527 -10.156770 -22.716163 -177.451600 0.000000 -10.537800
3.473831 16.465918 7.131938 4.826262 28.190214 21.550845 -12.620818 2.216177 -2.538284 2.000080 8.727333 -16.122324 0.182304 3.013539 50.413172 1.976289 9.422936 17.058801 3.019100 0.000000 -51.530800 7.473012 0.046838 -1.985185 19.895995 -2.302953 -44.498279 2.263286 -2.523679 40.621097 -3.726415 -10.420257 -22.987631 -177.336300 -0.000000 -10.523701
3.489821 16.486659 7.260023 5.079406 28.191841 21.743057 -12.542965 2.118013 -2.419966 1.658420 7.723576 -17.201446 0.250811 3.074579 51.669313 2.071166 10.689616 15.934007 3.381900 -0.000000 -49.598500 7.524349 0.084814 -2.057016 19.736436 -2.454198 -43.941058 2.234350 -2.475592 40.435233 -3.781280 -10.650216 -23.154190 -177.252600 0.000000 -10.603800
3.505125 16.511660 7.388023 5.354960 28.148993 22.006386 -12.460630 2.019232 -2.283693 1.272619 6.712320 -18.341883 0.308244 3.120537 52.760496 2.156263 11.840205 14.673238 3.645100 -0.000000 -48.018900 7.576197 0.117929 -2.098393 19.560272 -2.560730 -43.447067 2.208691 -2.422053 40.180204 -3.825248 -10.840905 -23.245909 -177.194800 -0.000000 -10.778800
3.519925 16.540764 7.515541 5.634081 28.048106 22.322718 -12.376863 1.918851 -2.134710 0.870535 5.722319 -19.528514 0.352524 3.152628 53.678952 2.228569 12.834030 13.300572 3.794700 0.000000 -46.615500 7.623681 0.143104 -2.113493 19.389935 -2.624220 -43.000606 2.189996 -2.362033 39.852141 -3.859435 -10.984562 -23.293603 -177.157100 -0.000000 -11.060400
3.534403 16.573725 7.642331 5.899454 27.879145 22.673073 -12.293529 1.816061 -1.978644 0.475721 4.779006 -20.742739 0.381872 3.171925 54.413436 2.286519 13.649172 11.853496 3.831500 -0.000001 -45.334199 7.663144 0.158003 -2.107535 19.243719 -2.649024 -42.578511 2.181499 -2.293738 39.438259 -3.884544 -11.076348 -23.317570 -177.135000 0.000000 -11.442400
3.548548 16.610280 7.768125 6.136869 27.636138 23.035525 -12.211784 1.710608 -1.821396 0.107424 3.904736 -21.960897 0.394998 3.179524 54.952496 2.329555 14.279057 10.373414 3.767500 0.000000 -44.124699 7.692154 0.161026 -2.086667 19.134709 -2.642928 -42.151322 2.185468 -2.215177 38.922059 -3.900693 -11.114622 -23.326635 -177.126000 -0.000000 -11.908300
3.562255 16.650093 7.892894 6.338446 27.316934 23.390548 -12.131179 1.602962 -1.668548 -0.224619 3.116698 -23.157530 0.391142 3.176015 55.285238 2.358281 14.732854 8.899998 3.622900 0.000000 -42.955099 7.710906 0.151732 -2.057159 19.067017 -2.617731 -41.689188 2.202976 -2.124963 38.289143 -3.906378 -11.096980 -23.317172 -177.131000 0.000000 -12.427200
3.575371 16.692758 8.016719 6.500554 26.922024 23.721900 -12.050578 1.493859 -1.525325 -0.517449 2.426183 -24.308198 0.369993 3.161870 55.403408 2.374165 15.030147 7.465953 3.420899 -0.000000 -41.769600 7.721001 0.130798 -2.025044 19.038872 -2.585012 -41.165786 2.233875 -2.022353 37.529221 -3.898975 -11.021187 -23.274953 -177.153500 0.000000 -12.957800
3.587789 16.737828 8.139817 6.625426 26.454612 24.018811 -11.967873 1.384406 -1.395259 -0.776040 1.836383 -25.390794 0.331910 3.136780 55.300555 2.379861 15.200699 6.099931 3.185900 -0.000001 -40.526200 7.726045 0.100004 -1.995027 19.040292 -2.556670 -40.562650 2.276706 -1.907671 36.639441 -3.874746 -10.884465 -23.177120 -177.199100 -0.000000 -13.448800
3.599312 16.784834 8.262460 6.718948 25.919253 24.275364 -11.881015 1.275721 -1.279887 -1.009475 1.342915 -26.387478 0.278008 3.099922 54.973082 2.379030 15.280771 4.827229 2.940699 0.000000 -39.237300 7.730207 0.061510 -1.970158 19.057884 -2.541352 -39.869669 2.328905 -1.782256 35.626133 -3.829709 -10.684612 -22.997878 -177.273900 0.000001 -13.846600
3.609860 16.833235 8.384886 6.788474 25.321261 24.489895 -11.788474 1.168961 -1.178530 -1.227780 0.934940 -27.286543 0.210170 3.050333 54.422842 2.375666 15.307258 3.665608 2.703400 -0.000000 -37.935600 7.737654 0.017705 -1.951369 19.075774 -2.543294 -39.087697 2.387122 -1.648592 34.506641 -3.760313 -10.420183 -22.714070 -177.382500 -0.000000 -14.100599
3.619459 16.882599 8.507470 6.843042 24.665718 24.668385 -11.688408 1.064832 -1.088853 -1.442558 0.594485 -28.083555 0.130578 2.986778 53.653272 2.373896 15.316074 2.624232 2.487199 -0.000000 -36.635900 7.752681 -0.028678 -1.937798 19.076740 -2.561377 -38.228773 2.447661 -1.509837 33.303639 -3.664228 -10.092041 -22.307214 -177.527500 0.000000 -14.172800
3.628107 16.932480 8.630454 6.890310 23.957859 24.818379 -11.580036 0.963834 -1.006797 -1.661142 0.300463 -28.780157 0.041950 2.908309 52.672626 2.377424 15.337484 1.705985 2.300100 -0.000000 -35.383100 7.778167 -0.075528 -1.927067 19.047096 -2.589134 -37.311937 2.506867 -1.369772 32.047751 -3.541062 -9.703523 -21.770415 -177.706900 0.000000 -14.044500
3.635944 16.982458 8.754018 6.935421 23.202112 24.949580 -11.463164 0.866081 -0.927344 -1.886790 0.029645 -29.382886 -0.052808 2.814260 51.491711 2.389181 15.394094 0.907098 2.145501 0.000000 -34.217700 7.815573 -0.121216 -1.915799 18.976950 -2.615718 -36.361339 2.561636 -1.232128 30.770796 -3.392831 -9.261692 -21.108551 -177.915100 -0.000000 -13.720200
3.643096 17.032234 8.878224 6.981250 22.402773 25.071613 -11.338229 0.771438 -0.845267 -2.118010 -0.240816 -29.901339 -0.150811 2.704466 50.123746 2.410995 15.499051 0.218989 2.023500 -0.000000 -33.176700 7.864779 -0.164675 -1.900582 18.861782 -2.627869 -35.401411 2.609650 -1.100202 29.503597 -3.223618 -8.776101 -20.338368 -178.143100 0.000000 -13.226800
3.649726 17.081540 9.003065 7.028170 21.563599 25.192241 -11.206244 0.679621 -0.755745 -2.349417 -0.531252 -30.344913 -0.249365 2.579119 48.582540 2.443496 15.656155 -0.369731 1.931700 0.000000 -32.281500 7.924283 -0.205434 -1.878701 18.701914 -2.613265 -34.454037 2.649615 -0.976599 28.272916 -3.038957 -8.257844 -19.485567 -178.380100 -0.000000 -12.608500
3.655975 17.130065 9.128421 7.073482 20.689170 25.317444 -11.068602 0.590103 -0.654889 -2.570747 -0.857890 -30.724398 -0.346056 2.438998 46.883935 2.485861 15.858644 -0.871690 1.866299 0.000000 -31.552800 7.991313 -0.243489 -1.848406 18.503710 -2.560512 -33.536155 2.681192 -0.862772 27.098530 -2.845575 -7.720489 -18.581522 -178.615101 0.000000 -11.918000
3.661925 17.177603 9.254125 7.114572 19.783866 25.449423 -10.926762 0.502646 -0.540236 -2.771898 -1.232225 -31.046112 -0.438957 2.285082 45.042679 2.535944 16.091785 -1.297752 1.823000 -0.000000 -30.991500 8.062960 -0.278989 -1.809604 18.275214 -2.463592 -32.657277 2.704779 -0.759300 25.992856 -2.649798 -7.176395 -17.658041 -178.838700 0.000000 -11.207700
3.667665 17.223871 9.380015 7.147963 18.852432 25.587516 -10.782543 0.417116 -0.410636 -2.942107 -1.660016 -31.315230 -0.526667 2.118762 43.074299 2.590268 16.333401 -1.657211 1.797300 0.000000 -30.581901 8.135945 -0.312308 -1.763306 18.026477 -2.320211 -31.819985 2.721263 -0.665805 24.960853 -2.457484 -6.637981 -16.744335 -179.043800 0.000000 -10.523001
3.673203 17.268596 9.505918 7.170979 17.900511 25.729255 -10.637283 0.333681 -0.266542 -3.072700 -2.142179 -31.534383 -0.608248 1.941586 40.994426 2.644330 16.557277 -1.954424 1.785300 0.000000 -30.305900 8.207988 -0.343701 -1.711638 17.766868 -2.132626 -31.021345 2.731626 -0.581457 24.001383 -2.273352 -6.116792 -15.862941 -179.226400 -0.000000 -9.896300
3.678540 17.311411 9.631706 7.181824 16.933928 25.870775 -10.492343 0.252761 -0.109557 -3.157970 -2.675057 -31.706058 -0.683299 1.755442 38.819953 2.692853 16.735200 -2.189380 1.784200 0.000000 -30.137000 8.277374 -0.373399 -1.657143 17.504352 -1.905705 -30.254371 2.736751 -0.505186 23.109559 -2.100824 -5.622654 -15.029254 -179.385000 -0.000000 -9.347100
3.683681 17.351964 9.757294 7.180379 15.958218 26.007192 -10.349136 0.175132 0.058065 -3.196299 -3.251512 -31.833309 -0.752058 1.562541 36.569456 2.730073 16.838861 -2.359074 1.791900 -0.000000 -30.039400 8.343028 -0.401617 -1.602204 17.244397 -1.646216 -29.509887 2.737213 -0.435930 22.278626 -1.942120 -5.163732 -14.251426 -179.520400 -0.000000 -8.880400
3.688605 17.389871 9.882661 7.167391 14.980230 26.135229 -10.208176 0.101552 0.233329 -3.189770 -3.862867 -31.921565 -0.815161 1.365261 34.263697 2.750431 16.843925 -2.455672 1.807701 0.000000 -29.989200 8.405398 -0.428373 -1.548924 16.989529 -1.361695 -28.779962 2.733285 -0.373057 21.502152 -1.798187 -4.745594 -13.530644 -179.634800 0.000000 -8.487700
3.693343 17.424732 10.007827 7.145403 14.005293 26.251931 -10.070538 0.032973 0.413568 -3.144093 -4.499527 -31.979234 -0.873826 1.166439 31.927009 2.748997 16.731045 -2.471490 1.830900 -0.000000 -29.960600 8.464775 -0.453729 -1.498439 16.739677 -1.058714 -28.058602 2.724878 -0.316262 20.776494 -1.668991 -4.370974 -12.863599 -179.731200 -0.000000 -8.149300
3.697924 17.456237 10.132916 7.117378 13.040224 26.357013 -9.936095 -0.030084 0.596051 -3.066982 -5.152761 -32.019103 -0.929629 0.968946 29.586547 2.721940 16.487392 -2.398551 1.861001 -0.000000 -29.942400 8.522797 -0.477593 -1.451104 16.492451 -0.742914 -27.344122 2.711787 -0.265739 20.100184 -1.553605 -4.039305 -12.244019 -179.812700 -0.000000 -7.833600
3.702409 17.484098 10.258010 7.086825 12.090089 26.450869 -9.805572 -0.087192 0.779033 -2.967473 -5.814561 -32.057503 -0.984482 0.775962 27.272979 2.666999 16.107119 -2.233607 1.895900 -0.000000 -29.928100 8.580171 -0.499986 -1.406485 16.244192 -0.418788 -26.637763 2.693773 -0.221918 19.476208 -1.450555 -3.746972 -11.665506 -179.882200 -0.000001 -7.505700
3.706896 17.508206 10.383248 7.056826 11.161276 26.536409 -9.678316 -0.138726 0.960924 -2.854221 -6.479085 -32.113604 -1.040387 0.590245 25.017644 2.583687 15.591486 -1.978258 1.932300 -0.000000 -29.923000 8.638588 -0.520900 -1.363678 15.990813 -0.089665 -25.945256 2.670782 -0.185569 18.909262 -1.357791 -3.487131 -11.121513 -179.942100 0.000001 -7.124600
3.711458 17.528503 10.508724 7.030295 10.258944 26.616262 -9.554576 -0.185260 1.140942 -2.735084 -7.140449 -32.207508 -1.099361 0.414470 22.852557 2.473215 14.946929 -1.642054 1.964700 0.000000 -29.939800 8.698378 -0.540327 -1.321540 15.728624 0.241983 -25.273555 2.643037 -0.157288 18.406763 -1.273206 -3.250799 -10.609283 -179.993699 0.000000 -6.659300
3.716195 17.545085 10.634476 7.009128 9.388312 26.693145 -9.434019 -0.227939 1.318584 -2.616340 -7.794250 -32.357873 -1.163078 0.250530 20.805990 2.338410 14.185012 -1.240854 1.986600 -0.000000 -29.998800 8.759895 -0.558312 -1.279337 15.455224 0.573103 -24.630175 2.611177 -0.137613 17.976205 -1.194537 -3.027092 -10.128455 179.962000 0.000000 -6.091000
3.721171 17.558162 10.760585 6.993473 8.555125 26.769555 -9.315926 -0.268426 1.493283 -2.502269 -8.436499 -32.579251 -1.232775 0.099331 18.899366 2.183205 13.320471 -0.795882 1.991200 -0.000000 -30.124400 8.823315 -0.575042 -1.236852 15.170202 0.900529 -24.022061 2.576216 -0.126884 17.623474 -1.119687 -2.805019 -9.680536 179.924900 -0.000000 -5.409400
3.726470 17.568037 10.886982 6.982988 7.763291 26.845791 -9.200663 -0.308064 1.664717 -2.396273 -9.061298 -32.880449 -1.309176 -0.038840 17.146726 2.012179 12.369789 -0.331564 1.972700 0.000000 -30.346500 8.887429 -0.590801 -1.194551 14.875738 1.220237 -23.452265 2.539534 -0.124943 17.353699 -1.046910 -2.573989 -9.271035 179.895300 0.000000 -4.636300
